# ProBuilder 5.0.4
# https://unity3d.com/unity/features/worldbuilding/probuilder
# 2022-04-05 11:24:38 AM

mtllib ./Dresser.mtl
o Dresser

g Dresser (4)
v 0 0 2
v -1 0 2
v 0 1 2
v -1 1 2
v -1 0 0
v 0 0 0
v -1 1 0
v 0 1 0
v -0.1131449 0.1000001 1.915464
v -0.8868551 0.1000001 1.915464
v -0.1131449 0.1000001 0.08453608
v -0.8868551 0.1000001 0.08453608
v 0 1.0001 1.915464
v -1 1.0001 1.915464
v 0 1.0001 0.08453608
v -1 1.0001 0.08453608
v -0.1131449 1.0002 1.915464
v -0.8868551 1.0002 1.915464
v -0.1131449 1.0002 0.08453608
v -0.8868551 1.0002 0.08453608
v -1 -2.133846E-07 0.03999996
v -1 -2.133846E-07 1.96
v -1 -2.133846E-07 1.04
v -1 0 1
v -1 -2.133846E-07 0.9599998
v 9.298324E-08 -9.417531E-08 0.03999996
v 9.298324E-08 -9.417531E-08 0.9599998
v 0 0 1
v 9.298324E-08 -9.417531E-08 1.04
v 9.298324E-08 -9.417531E-08 1.96
v -0.9549999 -2.080202E-07 0.9599998
v -0.9549999 -2.080202E-07 0.03999996
v -0.9549999 -2.080202E-07 1.96
v -0.9549999 -2.080202E-07 1.04
v -0.035 -9.834764E-08 0.9599998
v -0.035 -9.834764E-08 0.03999996
v -0.035 -9.834764E-08 1.96
v -0.035 -9.834764E-08 1.04
v -0.515 -1.555681E-07 0.03999996
v -0.4749999 -1.507997E-07 0.03999996
v -0.515 -1.555681E-07 0.9599998
v -0.4749999 -1.507997E-07 0.9599998
v -0.515 -1.555681E-07 1.04
v -0.4750001 -1.507997E-07 1.04
v -0.515 -1.555681E-07 1.96
v -0.4750001 -1.507997E-07 1.96
v -0.9549999 -0.03500101 0.9599999
v -0.515 -0.03500096 0.9599999
v -0.515 -0.03500096 0.03999996
v -0.9549999 -0.03500101 0.03999996
v -0.9549999 -0.03510115 1.96
v -0.515 -0.0351011 1.96
v -0.515 -0.0351011 1.04
v -0.9549999 -0.03510115 1.04
v -0.4750001 -0.03510109 1.96
v -0.03499999 -0.03510104 1.96
v -0.03499999 -0.03510104 1.04
v -0.4750001 -0.03510109 1.04
v -0.4749999 -0.03510109 0.9599999
v -0.03499999 -0.03510104 0.9599999
v -0.03499999 -0.03510104 0.03999996
v -0.4749999 -0.03510109 0.03999996
v -0.515 -0.03500096 0.4200001
v -0.515 -0.03500096 0.58
v -0.9549999 -0.03500101 0.4200001
v -0.9549999 -0.03500101 0.58
v -0.7350001 -0.03500099 0.58
v -0.7350001 -0.03500099 0.4200001
v -0.7749999 -0.03500099 0.4200001
v -0.7749999 -0.03500099 0.58
v -0.515 -0.0351011 1.42
v -0.515 -0.0351011 1.58
v -0.9549999 -0.03510115 1.58
v -0.9549999 -0.03510115 1.42
v -0.7750001 -0.03510113 1.58
v -0.7750001 -0.03510113 1.42
v -0.7350001 -0.03510112 1.42
v -0.7350001 -0.03510112 1.58
v -0.4750001 -0.03510109 1.58
v -0.4750001 -0.03510109 1.42
v -0.03499999 -0.03510104 1.42
v -0.03499999 -0.03510104 1.58
v -0.275 -0.03510107 1.58
v -0.275 -0.03510107 1.42
v -0.2350001 -0.03510106 1.42
v -0.2350001 -0.03510106 1.58
v -0.4749999 -0.03510109 0.4200001
v -0.4749999 -0.03510109 0.58
v -0.03499999 -0.03510104 0.4200001
v -0.03499999 -0.03510104 0.58
v -0.275 -0.03510107 0.58
v -0.275 -0.03510107 0.4200001
v -0.2350001 -0.03510106 0.4200001
v -0.2350001 -0.03510106 0.58
v -0.7749999 -0.07510109 0.46
v -0.7350001 -0.07510109 0.46
v -0.7749999 -0.07510109 0.5400001
v -0.7350001 -0.07510109 0.5400001
v -0.275 -0.07510103 0.46
v -0.2350001 -0.07510103 0.46
v -0.2350001 -0.07510103 0.5400001
v -0.275 -0.07510103 0.5400001
v -0.275 -0.07510103 1.46
v -0.2350001 -0.07510103 1.46
v -0.2350001 -0.07510103 1.54
v -0.275 -0.07510103 1.54
v -0.7750001 -0.07510109 1.46
v -0.7350001 -0.07510109 1.46
v -0.7750001 -0.07510109 1.54
v -0.7350001 -0.07510109 1.54

vt 0 0
vt -1 0
vt 0 1
vt -1 1
vt 1 0
vt 1 1
vt 0.1131449 1.915464
vt 0.8868551 1.915464
vt 0.1131449 0.08453608
vt 0.8868551 0.08453608
vt 0 1.998814
vt 1 1.998814
vt 0 1.914278
vt 1 1.914278
vt -2 1
vt -0.08453608 1.0001
vt -1.915464 1.0001
vt 2 1
vt 1.915464 1.0001
vt 0.08453608 1.0001
vt 1 0.001184533
vt 0 0.001184533
vt 1 0.08572067
vt 0 0.08572067
vt -0.1131449 1.0002
vt -0.8868551 1.0002
vt 0.0008851112 0.08453608
vt 0.0008851112 1.915464
vt 0.11403 0.08453608
vt 0.11403 1.915464
vt 0.9991145 1.915464
vt 0.9991145 0.08453608
vt 0.8859696 1.915464
vt 0.8859696 0.08453608
vt 0.8868551 1.0002
vt 0.1131449 1.0002
vt 0.1131449 0.1000001
vt 0.8868551 0.1000001
vt 0.08453608 0.1000001
vt 1.915464 0.1000001
vt -1.915464 0.1000001
vt -0.08453608 0.1000001
vt -0.8868551 0.1000001
vt -0.1131449 0.1000001
vt 0.03999996 -3.496239E-07
vt -3.477157E-15 0.9999999
vt 2 0.9999999
vt 2 -1.362392E-07
vt 1.96 -3.496239E-07
vt 1.04 -3.496239E-07
vt 0.9599998 -3.496239E-07
vt -0.03999996 -9.417531E-08
vt -0.9599998 -9.417531E-08
vt -1.04 -9.417531E-08
vt -1.96 -9.417531E-08
vt -2 -1.505534E-22
vt -1 0.9599998
vt -0.9549999 0.9599998
vt -0.9549999 0.03999996
vt -1 0.03999996
vt -1 1.96
vt -0.9549999 1.96
vt -0.9549999 1.04
vt -1 1.04
vt -0.035 0.9599998
vt 9.298324E-08 0.9599998
vt 9.298324E-08 0.03999996
vt -0.035 0.03999996
vt -0.035 1.96
vt 9.298324E-08 1.96
vt 9.298324E-08 1.04
vt -0.035 1.04
vt -0.515 0.03999996
vt -0.4749999 0.03999996
vt -0.515 0.9599998
vt -0.4749999 0.9599998
vt -0.515 1.04
vt -0.4750001 1.04
vt -0.515 1.96
vt -0.4750001 1.96
vt 0 2
vt -1 2
vt -0.9549999 -3.477685E-06
vt -0.515 -3.425233E-06
vt -0.9549999 -0.03500428
vt -0.515 -0.03500423
vt 0.515 -1.555681E-07
vt 0.9549999 -2.080202E-07
vt 0.515 -0.03500096
vt 0.9549999 -0.03500101
vt -0.4750001 6.505722E-06
vt -0.035 6.558174E-06
vt -0.4750001 -0.03509444
vt -0.03499999 -0.03509438
vt 0.035 3.433684E-06
vt 0.4750001 3.381232E-06
vt 0.03499999 -0.03509751
vt 0.4750001 -0.03509756
vt -0.4749999 -3.411136E-06
vt -0.4749999 -0.03510435
vt 0.4749999 -1.507997E-07
vt 0.4749999 -0.03510109
vt -0.03999996 -0.03500096
vt -0.4200001 -0.03500096
vt -0.58 -0.03500096
vt -0.9599999 -0.03500096
vt 0.4200001 -0.03500101
vt 0.03999996 -0.03500101
vt 0.9599999 -0.03500101
vt 0.58 -0.03500101
vt -0.7350001 0.58
vt -0.515 0.58
vt -0.515 0.4200001
vt -0.7350001 0.4200001
vt -0.9549999 0.4200001
vt -0.7749999 0.4200001
vt -0.9549999 0.58
vt -0.7749999 0.58
vt -1.04 -0.0351011
vt -1.42 -0.0351011
vt -1.58 -0.0351011
vt -1.96 -0.0351011
vt 1.96 -0.03510115
vt 1.58 -0.03510115
vt 1.42 -0.03510115
vt 1.04 -0.03510115
vt -0.9549999 1.42
vt -0.9549999 1.58
vt -0.7750001 1.58
vt -0.7750001 1.42
vt -0.7350001 1.42
vt -0.515 1.42
vt -0.7350001 1.58
vt -0.515 1.58
vt -0.9549999 1.96
vt -0.515 1.96
vt -0.4750001 1.42
vt -0.4750001 1.58
vt -0.275 1.58
vt -0.275 1.42
vt -0.2350001 1.42
vt -0.035 1.42
vt -0.2350001 1.58
vt -0.035 1.58
vt -0.4750001 1.96
vt -0.035 1.96
vt -0.4749999 0.4200001
vt -0.4749999 0.58
vt -0.275 0.58
vt -0.275 0.4200001
vt -0.2350001 0.4200001
vt -0.035 0.4200001
vt -0.2350001 0.58
vt -0.035 0.58
vt -0.7749999 0.46
vt -0.7350001 0.46
vt -0.7749999 0.5400001
vt -0.7350001 0.5400001
vt 0.46 -0.07510109
vt 0.5400001 -0.07510109
vt -0.46 -0.07510109
vt -0.5400001 -0.07510109
vt -0.275 0.46
vt -0.2350001 0.46
vt -0.2350001 0.5400001
vt -0.275 0.5400001
vt -0.275 1.46
vt -0.2350001 1.46
vt -0.2350001 1.54
vt -0.275 1.54
vt 1.46 -0.07510103
vt 1.54 -0.07510103
vt -1.46 -0.07510103
vt -1.54 -0.07510103
vt -0.7750001 1.46
vt -0.7350001 1.46
vt -0.7750001 1.54
vt -0.7350001 1.54

vn 0 0 1
vn 0 0 -1
vn 0 1 0
vn 0 0.9999993 0.001184533
vn 1 0 0
vn -1 0 0
vn 0 0.9999993 -0.001184533
vn 0.0008850226 0.9999996 0
vn -0.0008850226 0.9999996 0
vn 1.192093E-07 -1 0
vn 0 0 0
vn 3.288626E-08 -0.7062222 -0.7079903
vn 0 -0.7062222 0.7079903
vn -0.5 0 0
vn -0.6666667 0 0
vn 0.5 0 0
vn 0.6666667 0 0

usemtl ProBuilderDefault
f 7/46/6 5/1/6 21/45/6
f 7/46/6 21/45/6 25/51/6
f 24/5/6 7/46/6 25/51/6
f 22/49/6 2/48/6 4/47/6
f 23/50/6 22/49/6 4/47/6
f 24/5/6 23/50/6 4/47/6
f 7/46/6 24/5/6 4/47/6
f 3/15/5 28/2/5 8/3/5
f 3/15/5 29/54/5 28/2/5
f 3/15/5 30/55/5 29/54/5
f 3/15/5 1/56/5 30/55/5
f 27/53/5 8/3/5 28/2/5
f 27/53/5 26/52/5 8/3/5
f 26/52/5 6/1/5 8/3/5
f 36/68/10 6/1/10 26/67/10
f 6/1/10 36/68/10 40/74/10
f 6/1/10 40/74/10 5/2/10
f 5/2/10 40/74/10 39/73/10
f 5/2/10 39/73/10 32/59/10
f 21/60/10 5/2/10 32/59/10
f 35/65/10 27/66/10 28/3/10
f 42/76/10 35/65/10 28/3/10
f 42/76/10 28/3/10 24/4/10
f 24/4/10 41/75/10 42/76/10
f 24/4/10 31/58/10 41/75/10
f 25/57/10 31/58/10 24/4/10
f 38/72/10 28/3/10 29/71/10
f 28/3/10 38/72/10 44/78/10
f 28/3/10 44/78/10 24/4/10
f 24/4/10 44/78/10 43/77/10
f 24/4/10 43/77/10 34/63/10
f 23/64/10 24/4/10 34/63/10
f 37/69/10 30/70/10 1/81/10
f 46/80/10 37/69/10 1/81/10
f 46/80/10 1/81/10 2/82/10
f 2/82/10 45/79/10 46/80/10
f 2/82/10 33/62/10 45/79/10
f 22/61/10 33/62/10 2/82/10
f 41/53/5 63/104/5 39/52/5
f 41/53/5 64/105/5 63/104/5
f 48/106/5 64/105/5 41/53/5
f 63/104/5 49/103/5 39/52/5
f 32/45/6 50/108/6 65/107/6
f 31/51/6 66/110/6 47/109/6
f 65/107/6 66/110/6 31/51/6
f 32/45/6 65/107/6 31/51/6
f 49/73/10 63/113/10 68/114/10
f 49/73/10 68/114/10 50/59/10
f 50/59/10 68/114/10 69/116/10
f 65/115/10 50/59/10 69/116/10
f 47/58/10 67/111/10 48/75/10
f 47/58/10 70/118/10 67/111/10
f 47/58/10 66/117/10 70/118/10
f 67/111/10 64/112/10 48/75/10
f 71/120/5 53/119/5 43/54/5
f 45/55/5 71/120/5 43/54/5
f 45/55/5 72/121/5 71/120/5
f 45/55/5 52/122/5 72/121/5
f 73/124/6 51/123/6 33/49/6
f 74/125/6 73/124/6 33/49/6
f 34/50/6 74/125/6 33/49/6
f 34/50/6 54/126/6 74/125/6
f 53/77/10 71/132/10 77/131/10
f 77/131/10 76/130/10 53/77/10
f 53/77/10 76/130/10 54/63/10
f 74/127/10 54/63/10 76/130/10
f 75/129/10 52/136/10 51/135/10
f 75/129/10 78/133/10 52/136/10
f 78/133/10 72/134/10 52/136/10
f 51/135/10 73/128/10 75/129/10
f 79/124/6 55/123/6 46/49/6
f 80/125/6 79/124/6 46/49/6
f 44/50/6 80/125/6 46/49/6
f 44/50/6 58/126/6 80/125/6
f 81/120/5 57/119/5 38/54/5
f 37/55/5 81/120/5 38/54/5
f 37/55/5 82/121/5 81/120/5
f 37/55/5 56/122/5 82/121/5
f 57/72/10 81/142/10 85/141/10
f 85/141/10 84/140/10 57/72/10
f 57/72/10 84/140/10 58/78/10
f 80/137/10 58/78/10 84/140/10
f 83/139/10 56/146/10 55/145/10
f 83/139/10 86/143/10 56/146/10
f 86/143/10 82/144/10 56/146/10
f 55/145/10 79/138/10 83/139/10
f 40/45/6 62/108/6 87/107/6
f 42/51/6 88/110/6 59/109/6
f 87/107/6 88/110/6 42/51/6
f 40/45/6 87/107/6 42/51/6
f 35/53/5 89/104/5 36/52/5
f 35/53/5 90/105/5 89/104/5
f 60/106/5 90/105/5 35/53/5
f 89/104/5 61/103/5 36/52/5
f 61/68/10 89/152/10 93/151/10
f 93/151/10 92/150/10 61/68/10
f 61/68/10 92/150/10 62/74/10
f 87/147/10 62/74/10 92/150/10
f 91/149/10 60/65/10 59/76/10
f 91/149/10 94/153/10 60/65/10
f 94/153/10 90/154/10 60/65/10
f 59/76/10 88/148/10 91/149/10
f 97/160/15 70/110/11 70/110/14
f 69/107/15 69/107/11 95/159/14
f 69/107/15 95/159/14 97/160/15
f 70/110/14 69/107/15 97/160/15
f 98/162/17 68/104/17 67/105/16
f 98/162/17 96/161/16 68/104/17
f 96/161/16 68/104/11 68/104/17
f 67/105/16 67/105/11 98/162/17
f 102/160/15 91/110/11 91/110/14
f 92/107/15 92/107/11 99/159/14
f 92/107/15 99/159/14 102/160/15
f 91/110/14 92/107/15 102/160/15
f 101/162/17 93/104/17 94/105/16
f 101/162/17 100/161/16 93/104/17
f 100/161/16 93/104/11 93/104/17
f 94/105/16 94/105/11 101/162/17
f 106/172/15 83/124/11 83/124/14
f 84/125/15 84/125/11 103/171/14
f 84/125/15 103/171/14 106/172/15
f 83/124/14 84/125/15 106/172/15
f 105/174/17 85/120/17 86/121/16
f 105/174/17 104/173/16 85/120/17
f 104/173/16 85/120/11 85/120/17
f 86/121/16 86/121/11 105/174/17
f 109/172/15 75/124/11 75/124/14
f 76/125/15 76/125/11 107/171/14
f 76/125/15 107/171/14 109/172/15
f 75/124/14 76/125/15 109/172/15
f 110/174/17 77/120/17 78/121/16
f 110/174/17 108/173/16 77/120/17
f 108/173/16 77/120/11 77/120/17
f 78/121/16 78/121/11 110/174/17
f 4/4/1 2/2/1 1/1/1
f 1/1/1 3/3/1 4/4/1
f 8/3/2 6/1/2 5/5/2
f 5/5/2 7/6/2 8/3/2
f 12/10/3 10/8/3 9/7/3
f 9/7/3 11/9/3 12/10/3
f 14/14/4 4/12/4 3/11/4
f 3/11/4 13/13/4 14/14/4
f 13/17/5 3/15/5 8/3/5
f 8/3/5 15/16/5 13/17/5
f 16/20/6 7/3/6 4/18/6
f 4/18/6 14/19/6 16/20/6
f 15/24/7 8/22/7 7/21/7
f 7/21/7 16/23/7 15/24/7
f 18/26/1 14/4/1 13/3/1
f 13/3/1 17/25/1 18/26/1
f 17/30/8 13/28/8 15/27/8
f 15/27/8 19/29/8 17/30/8
f 20/34/9 16/32/9 14/31/9
f 14/31/9 18/33/9 20/34/9
f 19/36/2 15/3/2 16/6/2
f 16/6/2 20/35/2 19/36/2
f 10/38/2 18/35/2 17/36/2
f 17/36/2 9/37/2 10/38/2
f 9/40/6 17/19/6 19/20/6
f 19/20/6 11/39/6 9/40/6
f 12/42/5 20/16/5 18/17/5
f 18/17/5 10/41/5 12/42/5
f 11/44/1 19/25/1 20/26/1
f 20/26/1 12/43/1 11/44/1
f 32/59/10 31/58/10 25/57/10
f 25/57/10 21/60/10 32/59/10
f 34/63/10 33/62/10 22/61/10
f 22/61/10 23/64/10 34/63/10
f 27/66/10 35/65/10 36/68/10
f 36/68/10 26/67/10 27/66/10
f 30/70/10 37/69/10 38/72/10
f 38/72/10 29/71/10 30/70/10
f 42/76/10 41/75/10 39/73/10
f 39/73/10 40/74/10 42/76/10
f 46/80/10 45/79/10 43/77/10
f 43/77/10 44/78/10 46/80/10
f 48/86/1 41/84/1 31/83/1
f 31/83/1 47/85/1 48/86/1
f 50/90/2 32/88/2 39/87/2
f 39/87/2 49/89/2 50/90/2
f 52/86/1 45/84/1 33/83/1
f 33/83/1 51/85/1 52/86/1
f 54/90/2 34/88/2 43/87/2
f 43/87/2 53/89/2 54/90/2
f 56/94/1 37/92/1 46/91/1
f 46/91/1 55/93/1 56/94/1
f 58/98/2 44/96/2 38/95/2
f 38/95/2 57/97/2 58/98/2
f 60/94/1 35/92/1 42/99/1
f 42/99/1 59/100/1 60/94/1
f 62/102/2 40/101/2 36/95/2
f 36/95/2 61/97/2 62/102/2
f 64/112/10 67/111/10 68/114/10
f 68/114/10 63/113/10 64/112/10
f 70/118/10 66/117/10 65/115/10
f 65/115/10 69/116/10 70/118/10
f 76/130/10 75/129/10 73/128/10
f 73/128/10 74/127/10 76/130/10
f 72/134/10 78/133/10 77/131/10
f 77/131/10 71/132/10 72/134/10
f 83/139/10 79/138/10 80/137/10
f 80/137/10 84/140/10 83/139/10
f 82/144/10 86/143/10 85/141/10
f 85/141/10 81/142/10 82/144/10
f 92/150/10 91/149/10 88/148/10
f 88/148/10 87/147/10 92/150/10
f 90/154/10 94/153/10 93/151/10
f 93/151/10 89/152/10 90/154/10
f 91/105/5 91/105/5 92/104/5
f 92/104/5 92/104/5 91/105/5
f 94/1/11 94/1/11 91/1/11
f 91/1/11 91/1/11 94/1/11
f 93/107/6 93/107/6 94/110/6
f 94/110/6 94/110/6 93/107/6
f 92/1/11 92/1/11 93/1/11
f 93/1/11 93/1/11 92/1/11
f 94/1/11 94/1/11 91/1/11
f 91/1/11 91/1/11 94/1/11
f 92/1/11 92/1/11 93/1/11
f 93/1/11 93/1/11 92/1/11
f 86/1/11 86/1/11 83/1/11
f 83/1/11 83/1/11 86/1/11
f 84/1/11 84/1/11 85/1/11
f 85/1/11 85/1/11 84/1/11
f 78/1/11 78/1/11 75/1/11
f 75/1/11 75/1/11 78/1/11
f 76/1/11 76/1/11 77/1/11
f 77/1/11 77/1/11 76/1/11
f 67/1/11 67/1/11 70/1/11
f 70/1/11 70/1/11 67/1/11
f 69/1/11 69/1/11 68/1/11
f 68/1/11 68/1/11 69/1/11
f 96/156/12 95/155/12 69/116/12
f 69/116/12 68/114/12 96/156/12
f 96/156/10 98/158/10 97/157/10
f 97/157/10 95/155/10 96/156/10
f 98/158/13 67/111/13 70/118/13
f 70/118/13 97/157/13 98/158/13
f 93/151/12 100/164/12 99/163/12
f 99/163/12 92/150/12 93/151/12
f 101/165/13 94/153/13 91/149/13
f 91/149/13 102/166/13 101/165/13
f 100/164/10 101/165/10 102/166/10
f 102/166/10 99/163/10 100/164/10
f 85/141/12 104/168/12 103/167/12
f 103/167/12 84/140/12 85/141/12
f 86/143/13 83/139/13 106/170/13
f 106/170/13 105/169/13 86/143/13
f 105/169/10 106/170/10 103/167/10
f 103/167/10 104/168/10 105/169/10
f 108/176/12 107/175/12 76/130/12
f 76/130/12 77/131/12 108/176/12
f 110/178/10 109/177/10 107/175/10
f 107/175/10 108/176/10 110/178/10
f 78/133/13 75/129/13 109/177/13
f 109/177/13 110/178/13 78/133/13

