# ProBuilder 5.0.4
# https://unity3d.com/unity/features/worldbuilding/probuilder
# 2022-04-05 11:24:06 AM

mtllib ./Fridge.mtl
o Fridge

g Fridge
v -0.1131449 0.1000001 1.915464
v -0.8868551 0.1000001 1.915464
v -0.1131449 0.1000001 0.08453608
v -0.8868551 0.1000001 0.08453608
v 0 1 2
v -1 1 2
v 0 1.0001 1.915464
v -1 1.0001 1.915464
v 0 1 0
v 0 1.0001 0.08453608
v -1 1 0
v -1 1.0001 0.08453608
v -0.1131449 1.0002 1.915464
v -0.8868551 1.0002 1.915464
v -0.1131449 1.0002 0.08453608
v -0.8868551 1.0002 0.08453608
v -0.03999996 -5.602772E-09 2.000001
v -0.96 -5.602772E-09 2.000001
v -1 0 2
v 0 0 2
v -1 0 0
v -0.96 -5.602828E-09 -5.602828E-09
v -0.03999996 -5.602828E-09 -5.602828E-09
v 0 0 0
v -0.96 -0.03999974 1.927001
v -0.03999996 -0.03999974 1.927001
v -0.96 -0.03999982 1.247
v -0.03999996 -0.03999982 1.247001
v -0.96 -0.02009998 1.247001
v -0.03999996 -0.02009998 1.247001
v -0.96 -0.02009974 1.207001
v -0.03999996 -0.01999984 1.207
v -0.03999996 -0.02009974 1.207001
v 0 1.382828E-07 1.207
v -0.03999996 -0.03999997 0.04699994
v -0.03999996 -0.03999983 1.207001
v 0 -9.536745E-08 1.247
v -0.03992939 -0.01999984 1.247001
v -0.96 -0.03999983 1.207
v -0.96 -0.03999997 0.04699994
v -1 1.382828E-07 1.207
v -1 -9.536745E-08 1.247
v -0.9599295 -0.03999982 1.247001
v -0.9599295 -0.01999984 1.247001
v -0.9599295 -0.01999984 1.207001
v -0.9999294 1.382828E-07 1.207001
v -0.9999294 1.430512E-07 1.247001
v -0.03999996 -0.0399998 1.473667
v -0.5200005 -0.03999979 1.487
v -0.7399998 -0.03999982 1.287
v -0.7399998 -0.03999981 1.327
v -0.2800007 -0.03999982 1.287
v -0.2799997 -0.03999981 1.327
v -0.7399998 -0.03999982 1.287
v -0.3200006 -0.03999982 1.287001
v -0.3200006 -0.08010016 1.287002
v -0.3200006 -0.03999981 1.327002
v -0.3200006 -0.08009992 1.327002
v -0.6999998 -0.03999982 1.287
v -0.6999998 -0.08010016 1.287001
v -0.6999998 -0.08009992 1.327002
v -0.07999992 -0.03999997 0.04699994
v -0.1400003 -0.03999997 0.04699994
v -0.07999992 -0.03999983 1.207001
v -0.1400003 -0.03999983 1.207001
v -0.07999992 -0.08000016 0.1269999
v -0.1400003 -0.08000016 0.1269999
v -0.07999992 -0.03999996 0.1269999
v -0.07999992 -0.03999984 1.127
v -0.07999992 -0.08000004 1.127001
v -0.1400003 -0.08000004 1.127001
v -0.1400003 -0.03999984 1.127
v -0.1400003 -0.03999996 0.1269999

vt 0.1131449 1.915464
vt 0.8868551 1.915464
vt 0.1131449 0.08453608
vt 0.8868551 0.08453608
vt 0 1.998814
vt 1 1.998814
vt 0 1.914278
vt 1 1.914278
vt 0 1
vt -2 1
vt -0.08453608 1.0001
vt -1.915464 1.0001
vt 2 1
vt 1.915464 1.0001
vt 0.08453608 1.0001
vt 1 0.001184533
vt 0 0.001184533
vt 1 0.08572067
vt 0 0.08572067
vt -1 1.0001
vt -0.1131449 1.0002
vt -0.8868551 1.0002
vt 0.0008851112 0.08453608
vt 0.0008851112 1.915464
vt 0.11403 0.08453608
vt 0.11403 1.915464
vt 0.9991145 1.915464
vt 0.9991145 0.08453608
vt 0.8859696 1.915464
vt 0.8859696 0.08453608
vt 1 1.0001
vt 0.8868551 1.0002
vt 0.1131449 1.0002
vt 0.1131449 0.1000001
vt 0.8868551 0.1000001
vt 0.08453608 0.1000001
vt 1.915464 0.1000001
vt -1.915464 0.1000001
vt -0.08453608 0.1000001
vt -0.8868551 0.1000001
vt -0.1131449 0.1000001
vt -0.03999996 -9.592775E-07
vt -0.96 -9.592775E-07
vt -1 -9.536743E-07
vt -1 0.999999
vt 0 0.999999
vt 0 -9.536743E-07
vt 1 0
vt 0.96 -5.602828E-09
vt 0.03999996 -5.602828E-09
vt -0.9501944 1.928969
vt -0.9544784 2.001348
vt -0.03976989 1.99983
vt -0.03548595 1.927451
vt 0.9599997 -0.03998489
vt 0.03999964 -0.03998489
vt 0.9599997 -0.02008503
vt 0.03999964 -0.02008503
vt -0.9600006 1.207015
vt -0.9600006 1.247015
vt -0.04000058 1.247015
vt -0.04000058 1.207014
vt -1.481E-08 1.206857
vt -0.03548592 0.04767309
vt -0.03548594 1.207536
vt -1.207 1.382828E-07
vt -1.247 -9.536745E-08
vt -2 0
vt 6.31854E-05 1.247001
vt 6.328989E-05 1.207001
vt -0.04465814 1.207001
vt -0.04465813 1.247001
vt 0.04005218 -0.03995504
vt 0.0399816 -0.01995506
vt -0.9501944 1.209054
vt -0.9501944 0.04919115
vt -0.9544784 0.001584059
vt -0.9942483 0.001650067
vt -0.9942483 1.208507
vt 1.207 1.382828E-07
vt 2 0
vt 1.247 -9.536745E-08
vt -0.9501944 1.249049
vt -0.9942483 1.248502
vt -0.9942483 2.001413
vt -0.7858418 1.30404
vt -0.7966569 1.302033
vt -0.7966569 1.262318
vt -0.8411191 1.262892
vt -0.8411191 1.302606
vt -0.9599714 -0.03997115
vt -0.9999713 2.881481E-05
vt -0.9599008 -0.01997117
vt 0 1.999763
vt 1.021379E-08 1.246852
vt -0.03548594 1.247531
vt -0.03548594 1.474171
vt -0.5127256 1.488295
vt -0.7314596 1.288681
vt -0.7314596 1.328677
vt -0.2741062 1.287922
vt -0.2741053 1.327917
vt 0.2800268 -0.04002168
vt 0.3200268 -0.04002168
vt 0.3200268 -0.08012202
vt -0.3138761 1.327985
vt -0.280018 -0.0400216
vt -0.3200189 -0.0801217
vt -0.3200189 -0.0400216
vt -0.2799996 1.327001
vt -0.2800006 1.287
vt -0.3200005 1.287002
vt -0.3200005 1.327002
vt -0.6916897 1.288615
vt -0.3138761 1.287989
vt 0.7000259 -0.04002168
vt 0.7400259 -0.04002168
vt 0.7000259 -0.08012202
vt -0.700018 -0.0801217
vt -0.740018 -0.0400216
vt -0.7399997 1.327001
vt -0.6999996 1.327002
vt -0.6999996 1.287001
vt -0.7399997 1.287
vt -0.07525582 0.04773909
vt -0.1349111 0.0478381
vt -0.07999936 -0.04001236
vt -0.1399998 -0.04001236
vt -0.9599995 -0.04001236
vt -0.9599995 -0.02011228
vt -0.0399994 -0.02011228
vt -0.0399994 -0.04001236
vt -0.07999992 0.1493693
vt -0.07999992 0.05992658
vt -0.1400003 0.05992658
vt -0.1400003 0.1493693
vt -0.07525582 0.1277295
vt -0.07525583 1.127611
vt -0.07525583 1.207603
vt -0.1400003 1.061688
vt -0.07999992 1.061688
vt -0.07999992 0.9722443
vt -0.1400003 0.9722443
vt -0.07999992 1.127
vt -0.07999992 0.1269999
vt -0.1400003 0.1269999
vt -0.1400003 1.127
vt -0.1349111 1.207702
vt -0.1349111 1.12771
vt -0.1349111 0.1278285
vt 0.1269999 -0.03999996
vt 1.127 -0.03999984
vt 0.1269999 -0.0801003
vt 1.127 -0.08010018
vt -0.1400003 -0.04000654
vt -0.1400003 -0.08010688
vt -0.07999992 -0.08010688
vt -1.127 -0.03999984
vt -0.1269999 -0.03999996
vt -1.127 -0.08010018
vt -0.1269999 -0.0801003
vt 0.07999992 -0.03999996
vt 0.1400003 -0.03999996
vt 0.07999992 -0.0801003
vt 0.1400003 -0.0801003
vt -0.1400003 -0.03999996
vt -0.07999992 -0.03999996
vt -0.04699994 -0.03999997
vt 1.207001 -0.03999983
vt 0.07999992 -0.04001327
vt 0.1400003 -0.04001327

vn 0 1 0
vn 0 0.9999993 0.001184533
vn 1 0 0
vn -1 0 0
vn 0 0.9999993 -0.001184533
vn 0 0 1
vn 0.0008850226 0.9999996 0
vn -0.0008850226 0.9999996 0
vn 0 0 -1
vn 0 -0.8769776 0.4805312
vn 5.429205E-05 -0.4988067 0.4999956
vn 5.429205E-05 -0.9999985 -0.001254528
vn 0 -0.9999968 -0.002503235
vn 3.61947E-05 -0.6658701 0.332496
vn 0 0.002386628 0.9999971
vn 0.4714046 -0.4714045 5.492351E-08
vn 0.3535536 -0.734323 -0.3240593
vn 2.625695E-07 -0.7615393 -0.6481187
vn 0.4714046 -0.7252509 -0.2160395
vn 0.3535534 -0.3535534 4.201056E-08
vn 0 0 0
vn 0.4472136 -0.8944272 -5.224583E-06
vn -2.093541E-05 1.795528E-05 -0.5
vn 1.492758E-05 -1.197361E-05 0.5
vn -0.3535534 -0.3535534 4.201058E-08
vn -0.4714046 -0.7252509 -0.2160395
vn -0.3535536 -0.734323 -0.3240593
vn -0.4714046 -0.4714045 5.501083E-08
vn -0.3535582 -0.7920432 0.2402656
vn -0.7071048 -0.7071089 8.738946E-08
vn -0.471407 -0.7637318 0.1601771
vn -0.2981384 -0.5962808 -0.3333333
vn -0.4472136 -0.8944272 1.249494E-07
vn -0.2236008 -0.4472076 -0.4999999
vn 0.471407 -0.7637318 0.1601771
vn 0.7071047 -0.7071089 8.545258E-08
vn 0.3535582 -0.7920432 0.2402657
vn 1.992132E-09 -1 1.20524E-07
vn -8.466155E-09 -0.5 9.313069E-08
vn 1.101341E-13 -0.6666667 9.313149E-08
vn -1.192094E-05 -7.927401E-06 -0.3333333
vn 0.7079818 -0.7062306 -1.674797E-05
vn 0.3539962 -0.3531101 2.104702E-06
vn 1.463977E-06 -1.387295E-05 -0.6666667
vn -0.7079913 -0.7062212 2.170416E-06
vn -0.3539951 -0.3531111 2.104645E-06
vn -0.4719942 -0.4708141 1.446944E-06
vn 0 -0.8944262 -0.4472156
vn 0 -0.8944282 0.4472116
vn 0.5 0 0
vn -0.5 0 0

usemtl ProBuilderDefault
f 5/46/6 17/42/6 20/47/6
f 18/43/6 17/42/6 5/46/6
f 6/45/6 19/44/6 18/43/6
f 5/46/6 6/45/6 18/43/6
f 22/49/9 11/31/9 9/9/9
f 22/49/9 21/48/9 11/31/9
f 9/9/9 23/50/9 22/49/9
f 24/47/9 23/50/9 9/9/9
f 32/62/14 30/61/13 29/60/12
f 31/59/11 32/62/14 29/60/12
f 31/59/11 33/62/15 32/62/14
f 36/65/21 36/65/20 34/63/16
f 35/64/19 34/63/16 36/65/20
f 24/47/17 34/63/16 35/64/19
f 23/42/18 24/47/17 35/64/19
f 5/10/3 34/66/3 9/9/3
f 5/10/3 37/67/3 34/66/3
f 5/10/3 20/68/3 37/67/3
f 34/66/3 24/47/3 9/9/3
f 41/79/28 40/76/26 39/75/25
f 21/78/27 40/76/26 41/79/28
f 21/78/27 22/77/18 40/76/26
f 41/79/28 39/75/25 39/75/21
f 11/9/4 21/47/4 41/80/4
f 42/82/4 19/81/4 6/13/4
f 41/80/4 42/82/4 6/13/4
f 11/9/4 41/80/4 6/13/4
f 19/85/31 25/51/29 18/52/10
f 27/83/30 25/51/29 19/85/31
f 42/84/30 27/83/30 19/85/31
f 47/90/34 44/87/32 43/86/9
f 47/90/34 46/89/33 44/87/32
f 46/89/33 45/88/33 44/87/32
f 48/97/36 37/95/36 20/94/35
f 48/97/36 28/96/36 37/95/36
f 20/94/35 26/54/37 48/97/36
f 17/53/10 26/54/37 20/94/35
f 48/97/21 28/96/21 28/96/21
f 48/97/21 26/54/21 28/96/21
f 49/98/38 25/51/38 27/83/38
f 49/98/38 26/54/38 25/51/38
f 27/83/21 50/99/39 27/83/40
f 50/99/39 51/100/38 27/83/40
f 51/100/38 49/98/38 27/83/40
f 49/98/38 53/102/38 26/54/38
f 53/102/38 52/101/38 26/54/38
f 52/101/38 28/96/38 26/54/38
f 52/103/23 56/105/41 55/104/23
f 52/103/23 52/103/21 56/105/41
f 56/105/41 56/105/21 55/104/23
f 49/98/40 57/106/39 53/102/38
f 57/106/39 57/106/39 49/98/40
f 51/100/38 57/106/39 49/98/40
f 58/113/43 52/111/42 53/110/42
f 56/112/43 52/111/42 58/113/43
f 58/113/21 56/112/43 58/113/43
f 58/113/21 58/113/21 58/113/43
f 52/101/38 55/115/38 28/96/38
f 27/83/38 28/96/38 55/115/38
f 27/83/38 55/115/38 59/114/38
f 27/83/38 59/114/38 50/99/38
f 51/120/24 51/120/21 61/119/24
f 61/119/24 58/108/21 58/108/24
f 61/119/24 58/108/24 57/109/6
f 51/120/24 61/119/24 57/109/6
f 60/118/23 60/118/21 59/116/44
f 56/105/9 60/118/23 59/116/44
f 56/105/9 59/116/44 55/104/9
f 60/123/47 60/123/21 61/122/46
f 51/121/45 60/123/47 61/122/46
f 51/121/45 54/124/45 60/123/47
f 56/112/40 58/113/38 61/122/38
f 60/123/39 56/112/40 61/122/38
f 60/123/39 56/112/21 56/112/40
f 23/42/18 35/64/18 62/125/18
f 62/125/18 63/126/18 23/42/18
f 23/42/18 63/126/18 22/77/18
f 40/76/18 22/77/18 63/126/18
f 31/130/6 39/129/6 65/128/6
f 64/127/6 36/132/6 33/131/6
f 65/128/6 64/127/6 33/131/6
f 31/130/6 65/128/6 33/131/6
f 64/139/38 69/138/38 36/65/38
f 69/138/38 35/64/38 36/65/38
f 69/138/38 68/137/38 35/64/38
f 68/137/38 62/125/38 35/64/38
f 39/75/38 72/149/38 65/148/38
f 39/75/38 40/76/38 72/149/38
f 40/76/38 73/150/38 72/149/38
f 40/76/38 63/126/38 73/150/38
f 4/4/1 2/2/1 1/1/1
f 1/1/1 3/3/1 4/4/1
f 8/8/2 6/6/2 5/5/2
f 5/5/2 7/7/2 8/8/2
f 7/12/3 5/10/3 9/9/3
f 9/9/3 10/11/3 7/12/3
f 12/15/4 11/9/4 6/13/4
f 6/13/4 8/14/4 12/15/4
f 10/19/5 9/17/5 11/16/5
f 11/16/5 12/18/5 10/19/5
f 14/22/6 8/20/6 7/9/6
f 7/9/6 13/21/6 14/22/6
f 13/26/7 7/24/7 10/23/7
f 10/23/7 15/25/7 13/26/7
f 16/30/8 12/28/8 8/27/8
f 8/27/8 14/29/8 16/30/8
f 15/33/9 10/9/9 12/31/9
f 12/31/9 16/32/9 15/33/9
f 2/35/9 14/32/9 13/33/9
f 13/33/9 1/34/9 2/35/9
f 1/37/4 13/14/4 15/15/4
f 15/15/4 3/36/4 1/37/4
f 4/39/3 16/11/3 14/12/3
f 14/12/3 2/38/3 4/39/3
f 3/41/6 15/21/6 16/22/6
f 16/22/6 4/40/6 3/41/6
f 17/53/10 18/52/10 25/51/10
f 25/51/10 26/54/10 17/53/10
f 30/58/9 28/56/9 27/55/9
f 27/55/9 29/57/9 30/58/9
f 36/47/21 36/47/21 32/47/21
f 32/47/21 33/47/21 36/47/21
f 32/71/22 34/70/22 37/69/22
f 37/69/22 38/72/22 32/71/22
f 34/47/21 34/47/21 37/47/21
f 37/47/21 37/47/21 34/47/21
f 37/47/21 37/47/23 28/73/9
f 28/73/9 38/74/23 37/47/21
f 32/47/6 36/47/24 34/47/21
f 34/47/21 34/47/24 32/47/6
f 44/47/21 27/47/21 27/47/21
f 27/47/21 43/47/21 44/47/21
f 43/47/21 27/47/21 42/47/21
f 42/47/21 47/47/21 43/47/21
f 47/47/21 42/47/21 41/47/21
f 41/47/21 46/47/21 47/47/21
f 46/92/21 41/92/24 39/91/6
f 39/91/6 45/93/24 46/92/21
f 52/47/21 52/47/21 53/47/21
f 53/47/21 53/47/21 52/47/21
f 51/47/21 51/47/21 50/47/21
f 50/47/21 54/47/21 51/47/21
f 57/109/24 58/108/6 53/107/24
f 53/107/24 53/107/21 57/109/24
f 57/109/21 58/108/21 58/108/21
f 58/108/21 57/109/21 57/109/21
f 50/117/23 59/116/9 60/118/23
f 60/118/23 54/117/21 50/117/23
f 62/134/48 66/133/48 67/136/48
f 67/136/48 63/135/48 62/134/48
f 64/141/49 65/140/49 71/143/49
f 71/143/49 70/142/49 64/141/49
f 70/144/38 71/147/38 67/146/38
f 67/146/38 66/145/38 70/144/38
f 71/154/4 72/152/4 73/151/4
f 73/151/4 67/153/4 71/154/4
f 70/157/6 69/127/6 72/155/6
f 72/155/6 71/156/6 70/157/6
f 66/161/3 68/159/3 69/158/3
f 69/158/3 70/160/3 66/161/3
f 67/165/9 73/163/9 68/162/9
f 68/162/9 66/164/9 67/165/9
f 66/157/6 68/167/6 73/166/6
f 73/166/6 67/156/6 66/157/6
f 62/168/21 62/168/50 68/159/3
f 68/159/3 66/161/50 62/168/21
f 63/47/21 63/47/21 62/47/21
f 62/47/21 62/47/21 63/47/21
f 67/47/4 73/47/51 63/47/21
f 63/47/21 63/47/51 67/47/4
f 65/169/21 65/169/51 72/152/4
f 72/152/4 71/154/51 65/169/21
f 64/47/21 64/47/21 65/47/21
f 65/47/21 65/47/21 64/47/21
f 70/47/3 69/47/50 64/47/21
f 64/47/21 64/47/50 70/47/3
f 71/165/9 72/171/9 69/170/9
f 69/170/9 70/164/9 71/165/9

