# ProBuilder 5.0.4
# https://unity3d.com/unity/features/worldbuilding/probuilder
# 2022-04-05 11:23:51 AM

mtllib ./Table.mtl
o Table

g Cube (8)
v 0 1 1
v -1 1 1
v 0 1 0
v -1 1 0
v 0 0 0
v -1 0 0
v 0 0 1
v -1 0 1
v -0.4386315 0 0.5599439
v -0.5613685 0 0.5599439
v -0.5613685 0.9000001 0.5599439
v -0.4386315 0.9000001 0.5599439
v -1 0.9000001 1
v 0 0.9000001 1
v -0.5613685 0 0.4400561
v -0.5613685 0.9000001 0.4400561
v -1 0.9000001 0
v -0.4386315 0 0.4400561
v -0.4386315 0.9000001 0.4400561
v 0 0.9000001 0

vt 0 1
vt 1 1
vt 0 0
vt 1 0
vt -1 0
vt -1 1
vt -0.4386315 0
vt -0.5613685 0
vt -0.5613685 0.9000001
vt -0.4386315 0.9000001
vt -1 0.9000001
vt 0 0.9000001
vt 0.5599439 0
vt 0.4400561 0
vt 0.4400561 0.9000001
vt 0.5599439 0.9000001
vt 1 0.9000001
vt 0.5613685 0
vt 0.4386315 0
vt 0.4386315 0.9000001
vt 0.5613685 0.9000001
vt -0.4400561 0
vt -0.5599439 0
vt -0.5599439 0.9000001
vt -0.4400561 0.9000001
vt -0.5613685 0.5599439
vt -0.4386315 0.5599439
vt -0.4386315 0.4400561
vt -0.5613685 0.4400561
vt 0.4386315 0.4400561
vt 0.4386315 0.5599439
vt 0.5613685 0.5599439
vt 0.5613685 0.4400561

vn 0 1 0
vn 0 -1 0
vn 0 0 1
vn -1 0 0
vn 0 0 -1
vn 1 0 0

usemtl ProBuilderDefault
f 3/3/1 4/4/1 2/2/1 1/1/1
f 7/1/2 8/6/2 6/5/2 5/3/2
f 12/10/3 11/9/3 10/8/3 9/7/3
f 1/1/3 2/6/3 13/11/3 14/12/3
f 11/16/4 16/15/4 15/14/4 10/13/4
f 2/2/4 4/1/4 17/12/4 13/17/4
f 15/18/5 16/21/5 19/20/5 18/19/5
f 17/17/5 4/2/5 3/1/5 20/12/5
f 18/22/6 19/25/6 12/24/6 9/23/6
f 20/12/6 3/1/6 1/6/6 14/11/6
f 11/26/2 12/27/2 14/1/2 13/6/2
f 12/27/2 19/28/2 20/3/2 14/1/2
f 19/28/2 16/29/2 17/5/2 20/3/2
f 18/30/1 9/31/1 7/1/1 5/3/1
f 9/31/1 10/32/1 8/2/1 7/1/1
f 16/29/2 11/26/2 13/6/2 17/5/2
f 10/32/1 15/33/1 6/4/1 8/2/1
f 15/33/1 18/30/1 5/3/1 6/4/1

