# ProBuilder 5.0.4
# https://unity3d.com/unity/features/worldbuilding/probuilder
# 2022-04-05 11:23:10 AM

mtllib ./Cube.mtl
o Cube

g Cube
v -0.2 1.3 0
v -2.384186E-07 1.3 0
v -1.192093E-07 0 0
v -0.2000002 0 0
v -0.2 0.1000001 0
v -2.384186E-07 1.3 -1.5
v -0.2 1.3 -1.5
v -0.2 0.1000001 -1.5
v -0.2 0 -1.5
v -2.384186E-07 0 -1.5
v -0.7 0.1000001 -1.158883
v -0.7 0.9553473 -1.158883
v -0.7 0.9553473 -0.3411169
v -0.7 0.1000001 -0.3411169
v -2.384186E-07 1.3 -1.4
v -2.384186E-07 1.3 -0.0999999
v -2.384186E-07 0 -0.0999999
v -2.384186E-07 0 -1.4
v -2.384186E-07 1.2 -1.4
v -2.384186E-07 1.2 -0.0999999
v -2.384186E-07 0.1000001 -1.4
v -2.384186E-07 0.1000001 -0.0999999
v -0.01990032 0.1000001 -0.0999999
v -0.01990032 1.2 -0.0999999
v -0.01990032 1.2 -1.4
v -0.01990032 0.1000001 -1.4

vt -0.2 1.3
vt -2.384186E-07 1.3
vt -1.192093E-07 0
vt -0.2000002 0
vt -0.2 0.1000001
vt -1.158883 0.1427428
vt -1.5 0.1120779
vt -1.5 1.309819
vt -1.158883 0.9964798
vt -1.255262E-08 1.309819
vt -0.3411169 0.9964798
vt -1.255262E-08 0.1120779
vt -0.3411169 0.1427428
vt -1.255262E-08 0.01226597
vt -1.5 0.01226596
vt 0.2 -1.5
vt 2.384186E-07 -1.5
vt 2.384186E-07 -1.4
vt 2.384186E-07 -0.0999999
vt 0.2 0
vt -0.2 -1.5
vt 0.0999999 1.3
vt 1.4 1.3
vt 1.4 1.2
vt 0.0999999 1.2
vt 1.5 1.3
vt 1.5 1.257751E-16
vt 1.4 2.515519E-16
vt 1.4 0.1000001
vt 0.0999999 0.1000001
vt 0.0999999 1.886653E-15
vt 2.384186E-07 0.1000001
vt 2.384186E-07 1.2
vt 0.01990032 0.1000001
vt 0.01990032 1.2
vt -0.01990032 -0.0999999
vt -0.01990032 -1.4
vt -0.01990032 1.2
vt -0.01990032 0.1000001
vt 0.01990032 -1.4
vt 0.01990032 -0.0999999

vn 0 0 0.5
vn 0 0 0
vn 0 0 0.6666667
vn 0 0 1
vn 0 0 -0.6666667
vn 0 0 -0.5
vn 0 0 -1
vn -0.5635715 0 -0.8260673
vn -0.283769 0.4116736 0
vn -0.3783587 0.5488982 0
vn -0.5635712 0 0.8260675
vn -1 0 0
vn -0.379844 -0.4902903 -0.4130337
vn -0.3186013 -0.6537202 0.2753558
vn -0.3798438 -0.49029 0.4130338
vn -0.3186015 -0.6537204 -0.2753558
vn 0 1 0
vn 0 -1 0
vn 1 0 0

usemtl ProBuilderDefault
f 2/2/3 1/1/2 1/1/1
f 2/2/3 1/1/1 5/5/4
f 5/5/4 3/3/4 2/2/3
f 5/5/4 4/4/4 3/3/4
f 7/1/6 7/1/2 6/2/5
f 8/5/7 7/1/6 6/2/5
f 8/5/7 6/2/5 10/3/7
f 10/3/7 9/4/7 8/5/7
f 13/11/10 1/10/2 1/10/9
f 7/8/10 7/8/2 12/9/9
f 7/8/10 12/9/9 13/11/10
f 1/10/9 7/8/10 13/11/10
f 5/12/11 14/13/14 4/14/15
f 4/14/15 14/13/14 9/15/16
f 9/15/16 14/13/14 11/6/13
f 11/6/13 8/7/8 9/15/16
f 15/18/17 6/17/17 7/16/17
f 16/19/17 15/18/17 7/16/17
f 1/20/17 16/19/17 7/16/17
f 1/20/17 2/3/17 16/19/17
f 4/4/18 17/19/18 3/3/18
f 9/21/18 17/19/18 4/4/18
f 9/21/18 18/18/18 17/19/18
f 9/21/18 10/17/18 18/18/18
f 15/23/19 19/24/19 6/26/19
f 21/29/19 6/26/19 19/24/19
f 21/29/19 10/27/19 6/26/19
f 21/29/19 18/28/19 10/27/19
f 20/25/19 16/22/19 2/2/19
f 22/30/19 20/25/19 2/2/19
f 2/2/19 3/3/19 22/30/19
f 3/3/19 17/31/19 22/30/19
f 7/8/8 8/7/8 11/6/8
f 11/6/8 12/9/8 7/8/8
f 13/11/11 14/13/11 5/12/11
f 5/12/11 1/10/11 13/11/11
f 12/9/12 11/6/12 14/13/12
f 14/13/12 13/11/12 12/9/12
f 15/23/19 16/22/19 20/25/19
f 20/25/19 19/24/19 15/23/19
f 21/29/19 22/30/19 17/31/19
f 17/31/19 18/28/19 21/29/19
f 25/24/19 24/25/19 23/30/19
f 23/30/19 26/29/19 25/24/19
f 24/35/7 20/33/7 22/32/7
f 22/32/7 23/34/7 24/35/7
f 25/37/18 19/18/18 20/19/18
f 20/19/18 24/36/18 25/37/18
f 26/39/4 21/32/4 19/33/4
f 19/33/4 25/38/4 26/39/4
f 23/41/17 22/19/17 21/18/17
f 21/18/17 26/40/17 23/41/17

